<svg xmlns="http://www.w3.org/2000/svg" width="70" height="70" viewBox="0 0 70 70">
    <g transform="translate(-19.573 -648.249)">
        <rect width="70" height="70" rx="16" transform="translate(19.573 648.249)" style="fill:#f9e000"/>
        <path data-name="패스 18898" d="M205.436 278.392c-11.967 0-21.666 7.7-21.666 17.211 0 6.187 4.109 11.609 10.278 14.643-.452 1.7-1.641 6.157-1.878 7.111-.294 1.184.43 1.169.907.852.373-.25 5.937-4.052 8.337-5.692a27.3 27.3 0 0 0 4.022.3c11.966 0 21.666-7.7 21.666-17.21s-9.7-17.211-21.666-17.211" transform="translate(-151.197 384.857)" style="fill:#371c1d"/>
        <path data-name="패스 18899" d="M191.44 294.826h2.243s.014 6.191 0 7.633c0 1.053 2.333 1.067 2.33.015l.01-7.568s.751.005 2.232.007a1.1 1.1 0 0 0 0-2.205c-1.572 0-6.822-.044-6.822-.044a1.085 1.085 0 0 0 0 2.162" transform="translate(-152.278 382.453)" style="fill:#f9e000"/>
        <path data-name="패스 18901" d="m203.537 295.235 1.248 3.929h-2.6zm-1.4-1.841c-.552 1.221-2.546 6.989-3.207 8.519-.479 1.106 1.584 2.007 2.063.9l.449-1.577h4.1s-.142.065.4 1.51c.442 1.169 2.572.359 2.131-.811-.63-1.672-2.81-7.69-3.208-8.543a1.691 1.691 0 0 0-1.477-.676 1.3 1.3 0 0 0-1.26.676" transform="translate(-153.732 382.444)" style="fill:#f9e000"/>
        <path data-name="패스 18903" d="M210.8 293.755c0 1.96.012 8.278.012 8.278s-.18 1.256.891 1.256 3.449-.012 4.5-.012 1.049-2.253-.006-2.253-2.978-.011-2.978-.011.009-5.844.006-7.264a1.23 1.23 0 0 0-2.428.006" transform="translate(-155.724 382.444)" style="fill:#f9e000"/>
        <path data-name="패스 18905" d="M218.838 293.444c.023.86-.028 8.633-.027 9.209 0 .909 2.3.907 2.3 0v-3.058l.677-.545 2.956 4.054c.6.792 2.479-.64 1.882-1.432l-3.14-4.156s2.131-2.316 2.971-3.155c.49-.489-1.028-2.026-1.518-1.536-.474.474-3.814 3.832-3.814 3.832s.03-2.109 0-3.275c-.012-.443-.552-.657-1.106-.657-.591 0-1.2.246-1.184.719" transform="translate(-157.12 382.443)" style="fill:#f9e000"/>
    </g>
</svg>
