<svg xmlns="http://www.w3.org/2000/svg" width="70" height="70" viewBox="0 0 70 70">
    <g transform="translate(-108.572 -648)">
        <rect width="70" height="70" rx="16" transform="translate(108.572 648)" style="fill:#00b900"/>
        <path data-name="패스 18906" d="M273.322 250.059c0-9.841-9.776-17.846-21.792-17.846s-21.792 8.005-21.792 17.846c0 8.822 7.752 16.21 18.225 17.607.71.154 1.675.472 1.919 1.085a4.552 4.552 0 0 1 .071 1.988l-.311 1.883c-.1.556-.438 2.175 1.888 1.186s12.55-7.458 17.122-12.769c3.158-3.5 4.671-7.041 4.671-10.98" transform="translate(-108.165 429.787)" style="fill:#fff"/>
        <path data-name="패스 18907" d="M250.077 247.831h-1.529a.427.427 0 0 0-.424.428v9.582a.426.426 0 0 0 .424.427h1.529a.426.426 0 0 0 .424-.427v-9.582a.427.427 0 0 0-.424-.428" transform="translate(-111.141 427.259)" style="fill:#00b900"/>
        <path data-name="패스 18908" d="M261.344 247.831h-1.529a.426.426 0 0 0-.424.428v5.693l-4.352-5.931a.408.408 0 0 0-.033-.043l-.025-.026-.008-.008a.173.173 0 0 0-.023-.019l-.011-.008-.022-.015-.013-.008-.023-.013-.013-.006-.024-.011-.014-.005-.025-.008h-.014l-.025-.006H253.16a.426.426 0 0 0-.424.428v9.582a.425.425 0 0 0 .424.427h1.528a.426.426 0 0 0 .425-.427v-5.705l4.357 5.938a.418.418 0 0 0 .108.106l.026.016.013.007.02.01.021.008.013.005.029.009h.007a.416.416 0 0 0 .108.014h1.529a.425.425 0 0 0 .424-.427v-9.582a.426.426 0 0 0-.424-.428" transform="translate(-111.887 427.259)" style="fill:#00b900"/>
        <path data-name="패스 18909" d="M244.8 255.87h-4.154v-7.611a.426.426 0 0 0-.424-.428h-1.532a.427.427 0 0 0-.424.428v9.581a.426.426 0 0 0 .119.3l.006.007.006.006a.42.42 0 0 0 .293.119h6.11a.426.426 0 0 0 .423-.428V256.3a.426.426 0 0 0-.423-.428" transform="translate(-109.545 427.259)" style="fill:#00b900"/>
        <path data-name="패스 18910" d="M271.817 250.231a.426.426 0 0 0 .424-.428v-1.543a.426.426 0 0 0-.424-.429h-6.107a.416.416 0 0 0-.294.122h-.005l-.007.008a.427.427 0 0 0-.118.3v9.58a.425.425 0 0 0 .119.3l.006.007.006.006a.42.42 0 0 0 .293.119h6.107a.426.426 0 0 0 .424-.428V256.3a.426.426 0 0 0-.424-.428h-4.153v-1.62h4.153a.426.426 0 0 0 .424-.428v-1.542a.426.426 0 0 0-.424-.429h-4.153v-1.619z" transform="translate(-113.918 427.259)" style="fill:#00b900"/>
    </g>
</svg>
