<svg xmlns="http://www.w3.org/2000/svg" width="267" height="180" viewBox="0 0 267 180">
    <defs>
        <clipPath id="dalm5dbkma">
            <path data-name="사각형 15860" style="fill:none" d="M0 0h267v180H0z"/>
        </clipPath>
        <clipPath id="9loqkb0c5b">
            <path data-name="사각형 15778" style="fill:none" d="M0 0h218.602v178.688H0z"/>
        </clipPath>
        <clipPath id="qj52opxkrc">
            <path data-name="사각형 15821" style="fill:none" d="M0 0h267.229v220.57H0z"/>
        </clipPath>
        <clipPath id="4pacmekf4d">
            <path data-name="패스 19401" d="M614.96 270.783h19.907V249.2l-19.907-.076z" transform="translate(-614.96 -249.123)" style="fill:none"/>
        </clipPath>
        <clipPath id="gzelvz35me">
            <path data-name="사각형 15823" style="fill:none" d="M0 0h6.539v22.485H0z"/>
        </clipPath>
        <clipPath id="9tsg60y6rf">
            <path data-name="사각형 15826" style="fill:none" d="M0 0h5.64v10.11H0z"/>
        </clipPath>
        <clipPath id="t0gii6psyg">
            <path data-name="사각형 15827" style="fill:none" d="M0 0h3.927v10.11H0z"/>
        </clipPath>
        <clipPath id="dd16wm390h">
            <path data-name="사각형 15836" style="fill:none" d="M0 0h2.97v27.67H0z"/>
        </clipPath>
    </defs>
    <g data-name="그룹 34109" style="clip-path:url(#dalm5dbkma)">
        <g data-name="그룹 34089">
            <g data-name="그룹 34088" style="clip-path:url(#9loqkb0c5b)" transform="translate(26.505 -.036)">
                <path data-name="패스 19367" d="M425.316 209.613a101 101 0 1 1-101-100.979 100.992 100.992 0 0 1 101 100.979" transform="translate(-211.522 -90.023)" style="fill:#f3f4f6"/>
            </g>
        </g>
        <g data-name="그룹 34091">
            <g data-name="그룹 34090" style="clip-path:url(#qj52opxkrc)" transform="translate(.022 -.036)">
                <path data-name="패스 19368" d="M0 502.732h55.444c-3.145-2.345-6.639-3.762-10.406-2.667a13.455 13.455 0 0 0-11.127-8.309 13.457 13.457 0 0 0-12.38 6.294 6.221 6.221 0 0 0-6.963 1.645c-4.89-2.321-10.455-.48-14.569 3.038" transform="translate(0 -407.47)" style="fill:#f3c34a"/>
                <path data-name="패스 19369" d="M1115.722 45.618h43.886c-2.889-3.972-8.43-6.652-12.828-4.463-.263-2.825-3.546-4.2-6.331-4.746a20.749 20.749 0 0 0-8.185-.273 9.545 9.545 0 0 0-6.569 4.533c-.277.522-.549 1.132-1.108 1.325a2.271 2.271 0 0 1-1.056 0c-3.218-.45-5.492 1.346-7.81 3.623" transform="translate(-924.524 -29.697)" style="fill:#f3c34a"/>
                <path data-name="패스 19370" d="M1335.875 522.329h38.3a8.848 8.848 0 0 0-10.064-3.159 11.144 11.144 0 0 0-18.287-1.9 4.493 4.493 0 0 1-1.531 1.4 3.736 3.736 0 0 1-1.514.183 15.73 15.73 0 0 0-4.905.435c-1.576.484-1.466 1.482-2 3.04" transform="translate(-1106.951 -425.396)" style="fill:#f3c34a"/>
                <path data-name="사각형 15779" transform="translate(40.112 148.199)" style="fill:#f3c34a" d="M0 0h64.765v2.51H0z"/>
                <path data-name="사각형 15780" transform="translate(41.351 148.199)" style="fill:#f3c34a" d="M0 0h62.287v30.489H0z"/>
                <path data-name="사각형 15781" transform="translate(41.351 150.709)" style="fill:#ddab3a" d="M0 0h62.287v.406H0z"/>
                <path data-name="사각형 15782" transform="translate(41.351 176.236)" style="fill:#ddab3a" d="M0 0h62.287v.406H0z"/>
                <path data-name="사각형 15783" transform="translate(40.112 176.643)" style="fill:#f3c34a" d="M0 0h64.765v2.51H0z"/>
                <path data-name="사각형 15784" transform="translate(43.45 152.698)" style="fill:#ddab3a" d="M0 0h1.837v21.955H0z"/>
                <path data-name="사각형 15785" transform="translate(47.458 152.698)" style="fill:#ddab3a" d="M0 0h1.837v21.955H0z"/>
                <path data-name="사각형 15786" transform="translate(51.465 152.698)" style="fill:#ddab3a" d="M0 0h1.837v21.955H0z"/>
                <path data-name="사각형 15787" transform="translate(55.473 152.698)" style="fill:#ddab3a" d="M0 0h1.837v21.955H0z"/>
                <path data-name="사각형 15788" transform="translate(59.48 152.698)" style="fill:#ddab3a" d="M0 0h1.837v21.955H0z"/>
                <path data-name="사각형 15789" transform="translate(63.488 152.698)" style="fill:#ddab3a" d="M0 0h1.837v21.955H0z"/>
                <path data-name="사각형 15790" transform="translate(67.495 152.698)" style="fill:#ddab3a" d="M0 0h1.837v21.955H0z"/>
                <path data-name="사각형 15791" transform="translate(71.503 152.698)" style="fill:#ddab3a" d="M0 0h1.837v21.955H0z"/>
                <path data-name="사각형 15792" transform="translate(75.51 152.698)" style="fill:#ddab3a" d="M0 0h1.837v21.955H0z"/>
                <path data-name="사각형 15793" transform="translate(79.518 152.698)" style="fill:#ddab3a" d="M0 0h1.837v21.955H0z"/>
                <path data-name="사각형 15794" transform="translate(83.525 152.698)" style="fill:#ddab3a" d="M0 0h1.837v21.955H0z"/>
                <path data-name="사각형 15795" transform="translate(87.533 152.698)" style="fill:#ddab3a" d="M0 0h1.837v21.955H0z"/>
                <path data-name="사각형 15796" transform="translate(91.54 152.698)" style="fill:#ddab3a" d="M0 0h1.837v21.955H0z"/>
                <path data-name="사각형 15797" transform="translate(95.548 152.698)" style="fill:#ddab3a" d="M0 0h1.837v21.955H0z"/>
                <path data-name="사각형 15798" transform="translate(99.555 152.698)" style="fill:#ddab3a" d="M0 0h1.837v21.955H0z"/>
                <path data-name="사각형 15799" transform="translate(26.483 117.306)" style="fill:#f3c34a" d="M0 0h64.765v2.51H0z"/>
                <path data-name="사각형 15800" transform="translate(27.722 117.306)" style="fill:#f3c34a" d="M0 0h62.287v30.489H0z"/>
                <path data-name="사각형 15801" transform="translate(27.722 119.816)" style="fill:#ddab3a" d="M0 0h62.287v.406H0z"/>
                <path data-name="사각형 15802" transform="translate(27.722 145.344)" style="fill:#ddab3a" d="M0 0h62.287v.406H0z"/>
                <path data-name="사각형 15803" transform="translate(26.483 145.75)" style="fill:#f3c34a" d="M0 0h64.765v2.51H0z"/>
                <path data-name="사각형 15804" transform="translate(29.821 121.806)" style="fill:#ddab3a" d="M0 0h1.837v21.955H0z"/>
                <path data-name="사각형 15805" transform="translate(33.828 121.806)" style="fill:#ddab3a" d="M0 0h1.837v21.955H0z"/>
                <path data-name="사각형 15806" transform="translate(37.836 121.806)" style="fill:#ddab3a" d="M0 0h1.837v21.955H0z"/>
                <path data-name="사각형 15807" transform="translate(41.843 121.806)" style="fill:#ddab3a" d="M0 0h1.837v21.955H0z"/>
                <path data-name="사각형 15808" transform="translate(45.851 121.806)" style="fill:#ddab3a" d="M0 0h1.837v21.955H0z"/>
                <path data-name="사각형 15809" transform="translate(49.858 121.806)" style="fill:#ddab3a" d="M0 0h1.837v21.955H0z"/>
                <path data-name="사각형 15810" transform="translate(53.866 121.806)" style="fill:#ddab3a" d="M0 0h1.837v21.955H0z"/>
                <path data-name="사각형 15811" transform="translate(57.873 121.806)" style="fill:#ddab3a" d="M0 0h1.837v21.955H0z"/>
                <path data-name="사각형 15812" transform="translate(61.881 121.806)" style="fill:#ddab3a" d="M0 0h1.837v21.955H0z"/>
                <path data-name="사각형 15813" transform="translate(65.888 121.806)" style="fill:#ddab3a" d="M0 0h1.837v21.955H0z"/>
                <path data-name="사각형 15814" transform="translate(69.896 121.806)" style="fill:#ddab3a" d="M0 0h1.837v21.955H0z"/>
                <path data-name="사각형 15815" transform="translate(73.903 121.806)" style="fill:#ddab3a" d="M0 0h1.837v21.955H0z"/>
                <path data-name="사각형 15816" transform="translate(77.911 121.806)" style="fill:#ddab3a" d="M0 0h1.837v21.955H0z"/>
                <path data-name="사각형 15817" transform="translate(81.918 121.806)" style="fill:#ddab3a" d="M0 0h1.837v21.955H0z"/>
                <path data-name="사각형 15818" transform="translate(85.926 121.806)" style="fill:#ddab3a" d="M0 0h1.837v21.955H0z"/>
                <path data-name="패스 19371" d="M234.072 865.026h51.136l-51.136 2.51z" transform="translate(-193.96 -716.827)" style="fill:#ddab3a"/>
                <path data-name="패스 19372" d="M638.422 519.471H626.09v15.342h15.346v-15.342zm-9.317 5.5 7.575 6.827h-7.58zm9.317 4.34-7.575-6.827h7.575z" transform="translate(-518.799 -430.474)" style="fill:#444561"/>
                <path data-name="패스 19373" d="M626.09 594.446v12.328h15.346v-15.342H626.09zm5.5 9.315 6.829-7.573v7.573zm4.341-9.315-6.829 7.573v-7.573z" transform="translate(-518.799 -490.106)" style="fill:#444561"/>
                <path data-name="패스 19374" d="M638.422 663.392H626.09v15.342h15.346v-15.342zm-9.317 5.5 7.575 6.827h-7.58zm9.317 4.34-7.575-6.827h7.575z" transform="translate(-518.799 -549.738)" style="fill:#444561"/>
                <path data-name="패스 19375" d="M626.09 738.366v12.328h15.346v-15.342H626.09zm5.5 9.315 6.829-7.573v7.573zm4.341-9.315-6.829 7.574v-7.574z" transform="translate(-518.799 -609.369)" style="fill:#444561"/>
                <path data-name="패스 19376" d="M629.1 894.615h12.332v-15.342H626.09v15.342zm9.317-5.5-7.575-6.827h7.575zm-9.317-4.34 7.575 6.827H629.1z" transform="translate(-518.799 -728.633)" style="fill:#444561"/>
                <path data-name="패스 19377" d="M641.436 819.642v-12.329H626.09v15.342h15.346zm-5.5-9.315L629.1 817.9v-7.573zm-4.341 9.315 6.829-7.574v7.574z" transform="translate(-518.799 -669.002)" style="fill:#444561"/>
                <path data-name="패스 19378" d="M638.422 375.551H626.09v15.342h15.346v-15.342zm-9.317 5.5 7.575 6.827h-7.58zm9.317 4.34-7.575-6.827h7.575z" transform="translate(-518.799 -311.211)" style="fill:#444561"/>
                <path data-name="패스 19379" d="M626.09 450.525v12.328h15.346v-15.342H626.09zm5.5 9.315 6.829-7.573v7.573zm4.341-9.315L629.1 458.1v-7.573z" transform="translate(-518.799 -370.842)" style="fill:#444561"/>
                <path data-name="패스 19380" d="M756.637 322.262v-8.508h-15.346v10.587h15.346zm-5.5-6.428-6.829 5.226v-5.226zm-4.341 6.428 6.829-5.226v5.226z" transform="translate(-614.258 -260.001)" style="fill:#444561"/>
                <path data-name="패스 19381" d="M681.663 313.754h-12.332v10.587h15.346v-10.587zm-9.317 3.8 7.576 4.711h-7.576zm9.317 2.995-7.576-4.711h7.576z" transform="translate(-554.63 -260.001)" style="fill:#444561"/>
                <path data-name="패스 19382" d="M612.716 322.262v-8.508H597.37v10.587h15.346zm-5.5-6.428-6.829 5.226v-5.226zm-4.341 6.428 6.829-5.226v5.226z" transform="translate(-495.001 -260.001)" style="fill:#444561"/>
                <path data-name="패스 19383" d="M537.741 313.754H525.41v10.587h15.346v-10.587zm-9.317 3.8 7.576 4.708h-7.575zm9.317 2.995-7.575-4.711h7.575z" transform="translate(-435.372 -260.001)" style="fill:#444561"/>
                <path data-name="패스 19384" d="M381.489 315.834v8.508h15.346v-10.588h-15.346zm5.5 6.428 6.829-5.226v5.226zm4.341-6.428-6.83 5.226v-5.226z" transform="translate(-316.115 -260.001)" style="fill:#444561"/>
                <path data-name="패스 19385" d="M456.464 324.342H468.8v-10.587h-15.35v10.587zm9.317-3.8-7.575-4.711h7.575zm-9.317-2.995 7.575 4.711h-7.575z" transform="translate(-375.744 -260.002)" style="fill:#444561"/>
                <path data-name="패스 19386" d="M900.557 322.262v-8.508h-15.346v10.587h15.346zm-5.5-6.428-6.829 5.226v-5.226zm-4.341 6.428 6.829-5.226v5.226z" transform="translate(-733.515 -260.001)" style="fill:#444561"/>
                <path data-name="패스 19387" d="M825.583 313.754h-12.332v10.587H828.6v-10.587zm-9.317 3.8 7.575 4.711h-7.575zm9.317 2.995-7.575-4.711h7.575z" transform="translate(-673.887 -260.001)" style="fill:#444561"/>
                <path data-name="패스 19388" d="M641.128 214.7h4.219v-7.606H640.1v7.606zm3.188-2.727-2.592-3.385h2.592zm-3.188-2.152 2.592 3.385h-2.592z" transform="translate(-530.406 -171.614)" style="fill:#444561"/>
                <path data-name="패스 19389" d="M645.347 177.529v-6.112H640.1v7.606h5.25zm-1.883-4.618-2.336 3.755v-3.755zm-1.485 4.618 2.336-3.755v3.755z" transform="translate(-530.406 -142.049)" style="fill:#444561"/>
                <path data-name="패스 19390" d="M641.128 143.346h4.219v-7.606H640.1v7.606zm3.188-2.727-2.592-3.385h2.592zm-3.188-2.151 2.592 3.385h-2.592z" transform="translate(-530.406 -112.485)" style="fill:#444561"/>
                <path data-name="패스 19391" d="M645.347 106.175v-6.112H640.1v7.606h5.25zm-1.883-4.618-2.336 3.755v-3.755zm-1.485 4.618 2.336-3.755v3.755z" transform="translate(-530.406 -82.92)" style="fill:#444561"/>
                <path data-name="패스 19392" d="M644.316 28.708H640.1v7.606h5.25v-7.606zm-3.188 2.727 2.592 3.385h-2.592zm3.188 2.151-2.592-3.386h2.592z" transform="translate(-530.406 -23.79)" style="fill:#444561"/>
                <path data-name="패스 19393" d="M640.1 65.879v6.112h5.25v-7.606h-5.25zm1.88 4.621 2.336-3.755V70.5zm1.485-4.618-2.336 3.755v-3.758z" transform="translate(-530.406 -53.355)" style="fill:#444561"/>
                <path data-name="패스 19394" d="M641.128 286.055h4.219v-7.606H640.1v7.606zm3.188-2.727-2.592-3.385h2.592zm-3.188-2.151 2.592 3.385h-2.592z" transform="translate(-530.406 -230.744)" style="fill:#444561"/>
                <path data-name="패스 19395" d="M645.347 248.884v-6.112H640.1v7.606h5.25zm-1.883-4.618-2.336 3.755v-3.755zm-1.485 4.618 2.336-3.755v3.755z" transform="translate(-530.406 -201.18)" style="fill:#444561"/>
                <path data-name="패스 19396" d="m1195.615 382.259 1.681-6.2.543-2.007-2.91-.788-8.993-2.435-2.91-.788-.544 2.007-1.68 6.2-.544 2.007 2.91.788 8.993 2.435 2.91.788zm-3.631-7.642-7.958 3.26 1.366-5.045zm-5.87 5.07 7.958-3.26-1.366 5.045z" transform="translate(-978.002 -306.642)" style="fill:#444561"/>
                <path data-name="패스 19397" d="m1125.472 354.453-8.993-2.435-2.91-.788-.544 2.007-1.681 6.2-.543 2.007 2.91.788 8.993 2.435 2.91.788.544-2.007 1.68-6.2.544-2.007zm-9.986 1.23 6.081 6.527-7.312-1.979zm8.21 5.325-6.081-6.527 7.312 1.979z" transform="translate(-920.447 -291.057)" style="fill:#444561"/>
                <path data-name="패스 19398" d="m974.106 315.623-1.68 6.2-.544 2.007 2.91.788 8.993 2.435 2.91.788.544-2.007 1.68-6.2.544-2.007-2.91-.788-8.993-2.435-2.91-.788zm3.631 7.642 7.958-3.26-1.366 5.045zm5.87-5.07-7.958 3.26 1.366-5.045z" transform="translate(-805.334 -259.887)" style="fill:#444561"/>
                <path data-name="패스 19399" d="m1044.25 343.43 8.994 2.435 2.91.788.543-2.007 1.68-6.2.543-2.007-2.909-.788-8.993-2.435-2.91-.788-.544 2.007-1.68 6.2-.544 2.007zm9.986-1.23-6.08-6.527 7.312 1.979zm-8.211-5.325 6.081 6.527-7.312-1.98z" transform="translate(-862.89 -275.471)" style="fill:#444561"/>
                <path data-name="사각형 15819" transform="translate(102.369 165.982)" style="fill:#9395ac" d="M0 0h24.663v4.683H0z"/>
                <path data-name="사각형 15820" transform="translate(97.952 170.664)" style="fill:#444561" d="M0 0h33.897v8.535H0z"/>
                <path data-name="패스 19400" d="M634.868 270.782h-19.907v-21.66l19.907.076z" transform="translate(-509.577 -206.442)" style="fill:#f3c34a"/>
            </g>
        </g>
        <g data-name="그룹 34096">
            <g data-name="그룹 34095" style="clip-path:url(#4pacmekf4d)" transform="translate(105.405 42.645)">
                <g data-name="그룹 34094" style="opacity:.24">
                    <g data-name="그룹 34093">
                        <g data-name="그룹 34092" style="clip-path:url(#gzelvz35me)" transform="translate(3.414 -.001)">
                            <path data-name="사각형 15822" transform="translate(0 .001)" style="fill:#fff" d="M0 0h6.539v22.484H0z"/>
                        </g>
                    </g>
                </g>
            </g>
        </g>
        <g data-name="그룹 34104">
            <g data-name="그룹 34103" style="clip-path:url(#qj52opxkrc)" transform="translate(.022 -.036)">
                <path data-name="사각형 15824" transform="translate(108.798 47.233)" style="fill:#9395ac" d="M0 0h16.493v11.813H0z"/>
                <path data-name="사각형 15825" transform="translate(109.673 48.078)" style="fill:#fff" d="M0 0h14.683v10.11H0z"/>
                <g data-name="그룹 34099" style="opacity:.75">
                    <g data-name="그룹 34098">
                        <g data-name="그룹 34097" style="clip-path:url(#9tsg60y6rf)" transform="translate(111.494 48.078)">
                            <path data-name="패스 19402" d="M653.659 290.74h-3.041l2.6-10.11h3.041z" transform="translate(-650.617 -280.63)" style="fill:#eeeef5"/>
                        </g>
                    </g>
                </g>
                <g data-name="그룹 34102" style="opacity:.53">
                    <g data-name="그룹 34101">
                        <g data-name="그룹 34100" style="clip-path:url(#t0gii6psyg)" transform="translate(116.637 48.078)">
                            <path data-name="패스 19403" d="M681.872 290.74h-1.244l2.6-10.11h1.328z" transform="translate(-680.628 -280.63)" style="fill:#eeeef5"/>
                        </g>
                    </g>
                </g>
                <path data-name="사각형 15828" transform="translate(108.798 39.839)" style="fill:#444561" d="M0 0h7.037v2.842H0z"/>
                <path data-name="사각형 15829" transform="translate(108.135 3.188)" style="fill:#444561" d="M0 0h8.362v2.527H0z"/>
                <path data-name="패스 19404" d="M397.322 78.707a.227.227 0 0 1-.175-.373L437.3 30.128a.227.227 0 0 1 .349.291L397.5 78.625a.227.227 0 0 1-.175.082" transform="translate(-329.046 -24.899)" style="fill:#444561"/>
                <path data-name="사각형 15830" transform="translate(67.697 52.996)" style="fill:#444561" d="M0 0h1.565v.821H0z"/>
                <path data-name="패스 19405" d="M709.114 75.246a.227.227 0 0 1-.18-.088l-38.153-49 1.386 1.052c9.724 7.384 18.525 12.835 26.905 16.667 10.508 4.8 20.48 7.19 30.489 7.295a.227.227 0 0 1 0 .454c-10.073-.105-20.106-2.5-30.673-7.336a141.626 141.626 0 0 1-25.625-15.69l36.031 46.276a.227.227 0 0 1-.179.367" transform="translate(-555.832 -21.676)" style="fill:#444561"/>
                <path data-name="패스 19406" d="M1056.992 225.876a.226.226 0 0 1-.1-.022c-5.851-2.771-13.133-6.22-18.973-11.153-6.321-5.339-10.261-11.949-11.094-18.613a.227.227 0 1 1 .451-.056c.819 6.551 4.7 13.058 10.937 18.322 5.795 4.895 13.047 8.33 18.874 11.09a.227.227 0 0 1-.1.433" transform="translate(-850.862 -162.282)" style="fill:#444561"/>
                <path data-name="패스 19407" d="M1200.965 366.055a.857.857 0 1 1-.857-.857.857.857 0 0 1 .857.857" transform="translate(-993.738 -302.631)" style="fill:#444561"/>
                <path data-name="사각형 15831" transform="translate(152.37 52.933)" style="fill:#444561" d="M0 0h1.565v.821H0z"/>
                <path data-name="사각형 15832" transform="translate(105.384 64.34)" style="fill:#444561" d="M0 0h19.907v1.649H0z"/>
                <path data-name="사각형 15833" transform="translate(62.405 53.753)" style="fill:#9395ac" d="M0 0h16.485v27.671H0z"/>
            </g>
        </g>
        <g data-name="그룹 34106">
            <g data-name="그룹 34105" style="clip-path:url(#dd16wm390h)" transform="translate(62.426 53.718)">
                <path data-name="사각형 15835" style="fill:#f3c34a" d="M0 0h2.97v27.671H0z"/>
                <path data-name="패스 19408" d="m367.128 311.223-2.97-2.4v-2.08l2.97 2.4z" transform="translate(-364.158 -307.942)" style="fill:#444561"/>
                <path data-name="패스 19409" d="m367.128 336.052-2.97-2.4v-2.08l2.97 2.4z" transform="translate(-364.158 -328.517)" style="fill:#444561"/>
                <path data-name="패스 19410" d="m367.128 360.881-2.97-2.4V356.4l2.97 2.4z" transform="translate(-364.158 -349.093)" style="fill:#444561"/>
                <path data-name="패스 19411" d="m367.128 385.71-2.97-2.4v-2.08l2.97 2.4z" transform="translate(-364.158 -369.668)" style="fill:#444561"/>
                <path data-name="패스 19412" d="m367.128 410.539-2.97-2.4v-2.079l2.97 2.4z" transform="translate(-364.158 -390.243)" style="fill:#444561"/>
                <path data-name="패스 19413" d="m367.128 435.368-2.97-2.4v-2.08l2.97 2.4z" transform="translate(-364.158 -410.818)" style="fill:#444561"/>
                <path data-name="패스 19414" d="m367.128 460.2-2.97-2.4v-2.079l2.97 2.4z" transform="translate(-364.158 -431.393)" style="fill:#444561"/>
            </g>
        </g>
        <g data-name="그룹 34108">
            <g data-name="그룹 34107" style="clip-path:url(#qj52opxkrc)" transform="translate(.022 -.036)">
                <path data-name="사각형 15837" transform="rotate(-85 133.646 -29.872)" style="fill:#f3c34a" d="M0 0h2.511v64.765H0z"/>
                <path data-name="사각형 15838" transform="rotate(-85.036 148.265 -15.205)" style="fill:#f3c34a" d="M0 0h30.49v62.287H0z"/>
                <path data-name="사각형 15839" transform="rotate(-85.036 134.479 -30.241)" style="fill:#ddab3a" d="M0 0h.408v62.287H0z"/>
                <path data-name="사각형 15840" transform="rotate(-85.036 147.243 -16.32)" style="fill:#ddab3a" d="M0 0h.408v62.287H0z"/>
                <path data-name="사각형 15841" transform="rotate(-85.037 147.82 -14.33)" style="fill:#f3c34a" d="M0 0h2.511v64.765H0z"/>
                <path data-name="사각형 15842" transform="rotate(-85.039 147.388 -18.45)" style="fill:#ddab3a" d="M0 0h21.955v1.837H0z"/>
                <path data-name="사각형 15843" transform="rotate(-85.039 149.574 -20.454)" style="fill:#ddab3a" d="M0 0h21.955v1.837H0z"/>
                <path data-name="사각형 15844" transform="rotate(-85.039 151.76 -22.458)" style="fill:#ddab3a" d="M0 0h21.955v1.837H0z"/>
                <path data-name="사각형 15845" transform="rotate(-85.039 153.944 -24.462)" style="fill:#ddab3a" d="M0 0h21.955v1.837H0z"/>
                <path data-name="사각형 15846" transform="rotate(-85.039 156.13 -26.465)" style="fill:#ddab3a" d="M0 0h21.955v1.837H0z"/>
                <path data-name="사각형 15847" transform="rotate(-85.039 158.315 -28.47)" style="fill:#ddab3a" d="M0 0h21.955v1.837H0z"/>
                <path data-name="사각형 15848" transform="rotate(-85.039 160.5 -30.473)" style="fill:#ddab3a" d="M0 0h21.955v1.837H0z"/>
                <path data-name="사각형 15849" transform="rotate(-85.039 162.686 -32.477)" style="fill:#ddab3a" d="M0 0h21.955v1.837H0z"/>
                <path data-name="사각형 15850" transform="rotate(-85.039 164.87 -34.48)" style="fill:#ddab3a" d="M0 0h21.955v1.837H0z"/>
                <path data-name="사각형 15851" transform="rotate(-85.039 167.056 -36.484)" style="fill:#ddab3a" d="M0 0h21.955v1.837H0z"/>
                <path data-name="사각형 15852" transform="rotate(-85.039 169.241 -38.488)" style="fill:#ddab3a" d="M0 0h21.955v1.837H0z"/>
                <path data-name="사각형 15853" transform="rotate(-85.039 171.427 -40.491)" style="fill:#ddab3a" d="M0 0h21.955v1.837H0z"/>
                <path data-name="사각형 15854" transform="rotate(-85.039 173.612 -42.495)" style="fill:#ddab3a" d="M0 0h21.955v1.837H0z"/>
                <path data-name="사각형 15855" transform="rotate(-85.039 175.797 -44.498)" style="fill:#ddab3a" d="M0 0h21.955v1.837H0z"/>
                <path data-name="사각형 15856" transform="rotate(-85.039 177.983 -46.502)" style="fill:#ddab3a" d="M0 0h21.955v1.837H0z"/>
                <path data-name="패스 19418" d="M1034.928 511.161a3.314 3.314 0 0 1-3.314-3.314v-3.314h6.629v3.314a3.314 3.314 0 0 1-3.314 3.314" transform="translate(-854.83 -418.096)" style="fill:#444561"/>
                <path data-name="패스 19419" d="M1039.713 552.8a2.666 2.666 0 0 1 .011.873 3.066 3.066 0 0 1-.287.859 3.174 3.174 0 0 1-.561.743 3.253 3.253 0 0 1-.781.544 3.306 3.306 0 0 1-.926.281 3.2 3.2 0 0 1-1.915-.328 3.228 3.228 0 0 1-1.385-1.383 3.194 3.194 0 0 1-.328-1.915 3.3 3.3 0 0 1 .282-.927 3.26 3.26 0 0 1 .545-.781 3.192 3.192 0 0 1 .744-.56 3.069 3.069 0 0 1 .859-.287 2.669 2.669 0 0 1 .874.012 2.793 2.793 0 0 0-2.405 2.63 2.957 2.957 0 0 0 .068.7 2.542 2.542 0 0 0 .67 1.2 2.532 2.532 0 0 0 1.2.671 2.6 2.6 0 0 0 1.41-.059 2.918 2.918 0 0 0 1.924-2.279" transform="translate(-856.403 -455.68)" style="fill:#444561"/>
                <path data-name="패스 19420" d="M1049.3 543.637a.343.343 0 0 1-.343-.342v-1.826h.685v1.826a.342.342 0 0 1-.343.342" transform="translate(-869.2 -448.703)" style="fill:#444561"/>
                <path data-name="패스 19421" d="M971.115 587.456a.225.225 0 0 1-.064-.009l-31.939-9.347-22.845 4.583a.227.227 0 1 1-.089-.445l22.955-4.605.054.016 31.992 9.36a.227.227 0 0 1-.064.445" transform="translate(-759.024 -478.673)" style="fill:#444561"/>
                <path data-name="패스 19422" d="M1044.52 514.941a1.589 1.589 0 1 1-1.589-1.589 1.589 1.589 0 0 1 1.589 1.589" transform="translate(-862.89 -425.403)" style="fill:#eeeef5"/>
                <path data-name="사각형 15857" transform="rotate(-74.654 134.823 -81.994)" style="fill:#444561" d="M0 0h2.523v5.352H0z"/>
                <path data-name="패스 19423" d="M1060.877 426.62a.227.227 0 0 1-.227-.22l-.484-15.928a.227.227 0 0 1 .22-.234.23.23 0 0 1 .234.22l.484 15.928a.227.227 0 0 1-.22.234h-.007" transform="translate(-878.488 -339.955)" style="fill:#444561"/>
                <path data-name="패스 19424" d="M1039.205 423.535h-.02a.227.227 0 0 1-.207-.246l1.483-17.075a.229.229 0 0 1 .246-.207.227.227 0 0 1 .207.246l-1.483 17.075a.227.227 0 0 1-.226.208" transform="translate(-860.932 -336.447)" style="fill:#444561"/>
                <path data-name="사각형 15858" transform="translate(30.953 178.845)" style="fill:#444561" d="M0 0h203.215v.857H0z"/>
            </g>
        </g>
    </g>
</svg>
