<svg xmlns="http://www.w3.org/2000/svg" width="104.377" height="22.473" viewBox="0 0 104.377 22.473">
    <defs>
        <clipPath id="gy0eo4ct3a">
            <path data-name="사각형 15757" style="fill:transparent" d="M0 0h104.377v22.473H0z"/>
        </clipPath>
    </defs>
    <path data-name="패스 19361" d="m13.383 13.566-3.091 9.953-3.01-9.953H0l6.671 17.168h7.281l6.672-17.168z" transform="translate(0 -8.261)" style="fill:#10a1a7"/>
    <path data-name="사각형 15756" transform="translate(60.63 .019)" style="fill:#10a1a7" d="M0 0h6.396v22.335H0z"/>
    <g data-name="그룹 33805">
        <g data-name="그룹 33804" style="clip-path:url(#gy0eo4ct3a)">
            <path data-name="패스 19362" d="M242.794.353a5.947 5.947 0 0 0-5.865 6.024 6.129 6.129 0 0 0 .128 1.254h5.74z" transform="translate(-144.285 -.215)" style="fill:#036eb8"/>
            <path data-name="패스 19363" d="M257.672 7.637a6.137 6.137 0 0 0 .128-1.254A5.948 5.948 0 0 0 251.934.36v7.28z" transform="translate(-153.423 -.219)" style="fill:#172a88"/>
            <path data-name="패스 19364" d="M237.251 18.972a6.046 6.046 0 0 0 1.588 3.014l4.15 4.262v-7.276z" transform="translate(-144.482 -11.554)" style="fill:#10a1a7"/>
            <path data-name="패스 19365" d="M257.671 18.972h-5.739v7.277l4.15-4.263a6.043 6.043 0 0 0 1.588-3.014" transform="translate(-153.422 -11.554)" style="fill:#1ab7b7"/>
            <path data-name="패스 19366" d="M176.92 14.05a8.2 8.2 0 0 1 7.848-8.532q.323-.013.647 0a7.642 7.642 0 0 1 3.949 1.06V.332h5.514v21.712h-3.794l-.7-1.27a7.564 7.564 0 0 1-4.971 1.794 8.181 8.181 0 0 1-8.5-7.852q-.014-.333 0-.665m5.615 0a3.626 3.626 0 1 0 3.626-3.658 3.54 3.54 0 0 0-3.627 3.452v.207" transform="translate(-107.736 -.202)" style="fill:#10a1a7"/>
            <path data-name="패스 19367" d="M122.414 21.919a9.98 9.98 0 0 1-.115 1.457h-12.017a3.132 3.132 0 0 0 3.3 2.779 3.263 3.263 0 0 0 2.926-1.5h5.546a8.892 8.892 0 0 1-17.267-2.6c0-4.9 3.708-8.5 8.791-8.5 5.216 0 8.828 3.673 8.828 8.358zm-12.032-1.589h6.543a3.247 3.247 0 0 0-3.338-2.457 3.125 3.125 0 0 0-3.2 2.457" transform="translate(-63.816 -8.258)" style="fill:#10a1a7"/>
            <path data-name="패스 19368" d="M74.882 12.2v10.128h-5.795v-9.336c0-1.932-.736-2.891-2.195-2.891-1.809 0-2.846 1.246-2.846 3.359v8.868h-5.793V0h5.773v7.438C65.4 5.989 66.412 5.18 68.41 5.231c3.906 0 6.472 2.74 6.472 6.971" transform="translate(-35.475)" style="fill:#10a1a7"/>
        </g>
    </g>
</svg>
